<svg width="40" height="41" fill="none" xmlns="http://www.w3.org/2000/svg"><circle cx="20" cy="20.0161" r="20" fill="#EDFFFC"/><path d="M25 10.0161H15c-2.7614 0-5 2.2386-5 5v10c0 2.7614 2.2386 5 5 5h10c2.7614 0 5-2.2386 5-5v-10c0-2.7614-2.2386-5-5-5Z" stroke="#02897A" stroke-width="2" stroke-linecap="round" stroke-linejoin="round"/><path d="M24 19.3859a4.00032 4.00032 0 0 1-2.1584 4.1597 4.00033 4.00033 0 0 1-2.4339.3763 4.00041 4.00041 0 0 1-2.1929-1.1208 4.00036 4.00036 0 0 1-1.1208-2.193 4.00013 4.00013 0 0 1 .3763-2.4338 3.99958 3.99958 0 0 1 1.7306-1.7521 4.00031 4.00031 0 0 1 2.4291-.4063 4.00004 4.00004 0 0 1 2.2416 1.1283A4.00014 4.00014 0 0 1 24 19.3859ZM25.5 14.5161h.01" stroke="#02897A" stroke-width="2" stroke-linecap="round" stroke-linejoin="round"/></svg>