<svg width="163" height="30" fill="none" xmlns="http://www.w3.org/2000/svg"><path fill-rule="evenodd" clip-rule="evenodd" d="M106.11 9.8752c-.884-.5568-1.942-.8352-3.172-.8352-1.327 0-2.514.3312-3.5618.9936-1.0478.6624-1.8746 1.6128-2.4802 2.8512-.6056 1.2384-.9084 2.7024-.9084 4.392 0 1.6704.3028 3.1296.9084 4.3776.6056 1.248 1.4324 2.2032 2.4802 2.8656 1.0478.6624 2.2348.9936 3.5618.9936 1.23 0 2.288-.2784 3.172-.8352.884-.5568 1.528-1.3152 1.932-2.2752v2.9088h4.932V4h-4.932v8.1504c-.404-.96-1.048-1.7184-1.932-2.2752ZM52.9314 25.312v-7.1424h3.0569c1.5958 0 2.9512-.2832 4.0663-.8496s1.9562-1.344 2.5234-2.3328c.5671-.9888.8507-2.1168.8507-3.384 0-2.03521-.6344-3.65279-1.9033-4.8528-1.269-1.20001-3.1146-1.8-5.5371-1.8H48V25.312h4.9314Zm5.4794-13.7088c0 1.7472-.9901 2.6208-2.9704 2.6208h-2.509V8.9248h2.509c1.9803 0 2.9704.89279 2.9704 2.6784Zm12.3718.6624c.6152-.9792 1.4083-1.7568 2.3792-2.3328.9709-.576 2.0235-.864 3.1578-.864v5.2704h-1.4131c-1.3073 0-2.3215.2784-3.0425.8352-.7209.5568-1.0814 1.4976-1.0814 2.8224v7.3152h-4.9314V9.2416h4.9314v3.024Zm19.4229-2.232c-1.2593-.6624-2.6868-.9936-4.2826-.9936-1.5957 0-3.0281.3312-4.297.9936-1.2689.6624-2.2638 1.6176-2.9848 2.8656-.7209 1.248-1.0814 2.7072-1.0814 4.3776 0 1.6704.3605 3.1296 1.0814 4.3776.721 1.248 1.7159 2.2032 2.9848 2.8656 1.2689.6624 2.7013.9936 4.297.9936 1.5958 0 3.0233-.3312 4.2826-.9936 1.2592-.6624 2.2494-1.6176 2.9703-2.8656.721-1.248 1.0815-2.7072 1.0815-4.3776 0-1.6704-.3605-3.1296-1.0815-4.3776-.7209-1.248-1.7111-2.2032-2.9703-2.8656Zm-4.2826 3.2688c-.9421 0-1.7351.3408-2.3792 1.0224-.6441.6816-.9661 1.6656-.9661 2.952s.322 2.2656.9661 2.9376c.6441.672 1.4371 1.008 2.3792 1.008.9421 0 1.7303-.336 2.3648-1.008.6344-.672.9517-1.6512.9517-2.9376 0-1.2864-.3173-2.2704-.9517-2.952-.6345-.6816-1.4227-1.0224-2.3648-1.0224Zm18.6011.0576c-1.058 0-1.908.3456-2.552 1.0368-.644.6912-.966 1.6512-.966 2.88s.322 2.1888.966 2.88c.644.6912 1.494 1.0368 2.552 1.0368 1.038 0 1.889-.3552 2.552-1.0656.663-.7104.995-1.6608.995-2.8512 0-1.2096-.332-2.1648-.995-2.8656-.663-.7008-1.514-1.0512-2.552-1.0512Zm22.898 11.952h4.96V9.2416h-4.96v8.5248c0 1.1712-.289 2.0736-.865 2.7072-.577.6336-1.365.9504-2.365.9504-.961 0-1.726-.3024-2.293-.9072-.567-.6048-.851-1.4544-.851-2.5488V9.2416h-4.902v9.3312c0 2.1504.543 3.84 1.629 5.0688 1.087 1.2288 2.552 1.8432 4.398 1.8432 1.211 0 2.274-.2784 3.187-.8352.913-.5568 1.6-1.3056 2.062-2.2464v2.9088Zm15.63-16.272c2.077 0 3.817.57119 5.22 1.7136 1.404 1.1424 2.288 2.712 2.653 4.7088h-5.219c-.154-.6912-.471-1.2288-.952-1.6128-.481-.384-1.086-.576-1.817-.576-.865 0-1.576.3408-2.134 1.0224-.558.6816-.836 1.6752-.836 2.9808 0 1.3056.278 2.2992.836 2.9808.558.6816 1.269 1.0224 2.134 1.0224.731 0 1.336-.192 1.817-.576.481-.384.798-.9216.952-1.6128h5.219c-.365 1.9968-1.249 3.5664-2.653 4.7088-1.403 1.1424-3.143 1.7136-5.22 1.7136-1.576 0-2.975-.3312-4.196-.9936-1.22-.6624-2.177-1.6176-2.869-2.8656-.692-1.248-1.038-2.7072-1.038-4.3776 0-1.6896.341-3.1536 1.023-4.392.683-1.2384 1.639-2.1888 2.87-2.8512 1.23-.6624 2.634-.9936 4.21-.9936Zm19.553 16.272v-4.2336h-1.557c-.615 0-1.053-.1248-1.312-.3744-.26-.2496-.39-.6912-.39-1.3248v-5.9904h3.23V9.2416h-3.23V5.296h-4.931v3.9456h-2.163v4.1472h2.163v5.904c0 2.1504.524 3.6912 1.572 4.6224 1.047.9312 2.513 1.3968 4.397 1.3968h2.221Z" fill="#fff"/><path fill-rule="evenodd" clip-rule="evenodd" d="M2.50646 27.5668C1.12791 27.5668 0 26.4389 0 25.0603v-8.7629h6.30899v-.0097H10.101c.9775-.025 1.8047-.8772 1.8047-1.8798 0-1.0277-.8522-1.8798-1.8799-1.8798H5.01292v.0014H0v-2.5079c0-1.37856 1.12791-2.50646 2.50646-2.50646h7.51934c1.9049 0 3.5341.67674 4.8626 2.03023 1.3534 1.32843 2.0302 2.95763 2.0302 4.86253 0 1.8798-.6517 3.509-1.9801 4.8375-1.3284 1.3284-2.9326 2.0302-4.8124 2.0553H5.01292v3.7596c0 1.3786-1.12791 2.5065-2.50646 2.5065Z" fill="#02BC6B"/><path fill-rule="evenodd" clip-rule="evenodd" d="M20.0779 4.60645c2.7692 2.68971 4.1646 6.03955 4.1646 9.84755 0 3.744-1.337 7.0908-4.0634 9.7889l-3.871-3.6421c1.6956-1.678 2.5279-3.6982 2.5279-6.1468 0-2.4672-.8573-4.48431-2.5936-6.17073l3.8355-3.67682Z" fill="#02897A"/><path fill-rule="evenodd" clip-rule="evenodd" d="M26.0044 0C29.9929 3.98225 32 8.91996 32 14.587c0 5.5786-1.9262 10.5133-5.8492 14.504l-3.7358-3.6502c2.9222-2.9728 4.3541-6.5783 4.3541-10.8538 0-4.3183-1.4802-7.92079-4.4661-10.90207L26.0044 0Z" fill="#035B81"/><path fill-rule="evenodd" clip-rule="evenodd" d="M0 21.3218h5.01292v3.7388c0 1.3786-1.12791 2.5065-2.50646 2.5065C1.12791 27.5671 0 26.4392 0 25.0606v-3.7388Z" fill="#028E37"/></svg>