<svg width="24" height="20" fill="none" xmlns="http://www.w3.org/2000/svg"><path d="M24 2.309c-.883.392-1.832.656-2.828.775C22.189 2.475 22.97 1.51 23.337.36c-.951.564-2.005.974-3.127 1.195C19.313.598 18.032 0 16.616 0c-3.179 0-5.515 2.966-4.797 6.045C7.728 5.84 4.1 3.88 1.671.901c-1.29 2.213-.669 5.108 1.523 6.574-.806-.026-1.566-.247-2.229-.616-.054 2.281 1.581 4.415 3.949 4.89-.693.188-1.452.232-2.224.084.626 1.956 2.444 3.379 4.6 3.419C5.22 16.875 2.612 17.6 0 17.292c2.179 1.397 4.768 2.212 7.548 2.212 9.142 0 14.307-7.721 13.995-14.646.962-.695 1.797-1.562 2.457-2.549Z" fill="#fff"/></svg>