<svg width="40" height="43" fill="none" xmlns="http://www.w3.org/2000/svg"><ellipse cx="20" cy="21.4969" rx="20" ry="21.4857" fill="#EDFFFC"/><path d="M31 11.8394c-.9576.7257-2.0179 1.2807-3.14 1.6437-.6023-.744-1.4027-1.2712-2.293-1.5106-.8903-.2393-1.8275-.1791-2.6849.1725-.8574.3516-1.5937.9775-2.1091 1.7933-.5155.8157-.7853 1.7818-.773 2.7676v1.0743c-1.7574.049-3.4987-.3697-5.069-1.2188-1.5703-.8491-2.9207-2.1022-3.931-3.6477 0 0-4 9.6686 5 13.9657-2.0595 1.5018-4.5128 2.2548-7 2.1486 9 5.3714 20 0 20-12.3543a5.1816 5.1816 0 0 0-.08-.8917c1.0206-1.0812 1.7408-2.4464 2.08-3.9426v0Z" stroke="#02897A" stroke-width="2" stroke-linecap="round" stroke-linejoin="round"/></svg>